<?xml version="1.0" encoding="iso-8859-1"?>
<!-- Generator: Adobe Illustrator 16.0.0, SVG Export Plug-In . SVG Version: 6.00 Build 0)  -->
<!DOCTYPE svg PUBLIC "-//W3C//DTD SVG 1.1//EN" "http://www.w3.org/Graphics/SVG/1.1/DTD/svg11.dtd">
<svg version="1.1" id="Capa_1" xmlns="http://www.w3.org/2000/svg" xmlns:xlink="http://www.w3.org/1999/xlink" x="0px" y="0px"
	 width="428.408px" height="428.407px" viewBox="0 0 428.408 428.407" style="enable-background:new 0 0 428.408 428.407;"
	 xml:space="preserve">
<g>
	<path d="M214.204,0c-11.75,0-23.263,0.986-34.503,2.802c4.93,1.856,11.084,2.856,19.476,2.455
		c28.873-1.374,46.763,4.127,26.119,12.39c-20.645,8.262-16.803,17.034-7.167,17.721c9.636,0.687,32.096-9.595,39.549-0.551
		c7.69,9.336-8.63,24.65,1.102,41.194c14.477,24.623-35.041,30.26-47.553,48.722c-12.07,17.809-18.877,36.883-5.113,62.451
		c13.763,25.568,17,10.125,41.201,12.927c47.709,5.521,33.429,42.874,92.208,54.57c22.487,4.475,7.031,53.325-32.43,76.867
		c-38.032,22.685-26.023,48.708-80.069,66.062c-12.988,4.169-22.869,1.775-12.818-12.675c19.495-28.022,17.803-59.255,0-73.236
		c-17.802-13.98-37.76-17.027-32.946-38.556c4.814-21.529,23.446-29.063,24.772-48.416c1.279-18.666-28.335-82.198-65.348-69.619
		c-21.141,7.188-62.03-19.706-59.867-54.923c2.509-40.916,33.85-47.186,26.812-71.522c-0.021-0.068,0.006-0.156,0-0.231
		C43.333,65.396,0.003,134.722,0.003,214.207c0,118.3,95.9,214.2,214.2,214.2s214.2-95.9,214.2-214.2S332.503,0,214.204,0z"/>
</g>
<g>
</g>
<g>
</g>
<g>
</g>
<g>
</g>
<g>
</g>
<g>
</g>
<g>
</g>
<g>
</g>
<g>
</g>
<g>
</g>
<g>
</g>
<g>
</g>
<g>
</g>
<g>
</g>
<g>
</g>
</svg>
